<svg xmlns="http://www.w3.org/2000/svg" viewBox="0 0 24 24" fill="none">
  <defs>
    <linearGradient id="brassGradient" x1="0%" y1="0%" x2="100%" y2="100%">
      <stop offset="0%" stop-color="#d4af37" />
      <stop offset="50%" stop-color="#b8860b" />
      <stop offset="100%" stop-color="#8b4513" />
    </linearGradient>
  </defs>

  <!-- Brass circle background -->
  <circle cx="12" cy="12" r="10" fill="url(#brassGradient)" stroke="#8b4513" stroke-width="1"/>

  <!-- Circular arrow -->
  <path d="M12 6v3l4-4-4-4v3c-4.42 0-8 3.58-8 8 0 1.57.46 3.03 1.24 4.26L6.7 14.8c-.45-.83-.7-1.79-.7-2.8 0-3.31 2.69-6 6-6zm6.76 1.74L17.3 9.2c.44.84.7 1.79.7 2.8 0 3.31-2.69 6-6 6v-3l-4 4 4 4v-3c4.42 0 8-3.58 8-8 0-1.57-.46-3.03-1.24-4.26z" 
        fill="#4b2404" stroke="#3a1c03" stroke-width="0.5" />
</svg>
