<svg width="64" height="64" viewBox="0 0 64 64" xmlns="http://www.w3.org/2000/svg">
  <!-- Background circle with gradient -->
  <defs>
    <radialGradient id="skyGrad" cx="0.3" cy="0.3">
      <stop offset="0%" stop-color="#e8f4f8"/>
      <stop offset="100%" stop-color="#87ceeb"/>
    </radialGradient>
    <linearGradient id="mountainGrad" x1="0%" y1="0%" x2="0%" y2="100%">
      <stop offset="0%" stop-color="#6b8db5"/>
      <stop offset="100%" stop-color="#4a6b85"/>
    </linearGradient>
    <linearGradient id="waterGrad" x1="0%" y1="0%" x2="0%" y2="100%">
      <stop offset="0%" stop-color="#5ba3c7"/>
      <stop offset="100%" stop-color="#4a8fb5"/>
    </linearGradient>
    <linearGradient id="trunkGrad" x1="0%" y1="0%" x2="100%" y2="0%">
      <stop offset="0%" stop-color="#4a3429"/>
      <stop offset="100%" stop-color="#6b4c41"/>
    </linearGradient>
  </defs>
  
  <!-- Outer border -->
  <circle cx="32" cy="32" r="31" fill="none" stroke="#2c4a5a" stroke-width="2"/>
  
  <!-- Sky background -->
  <circle cx="32" cy="32" r="29" fill="url(#skyGrad)"/>
  
  <!-- Lake/water body behind mountains -->
  <ellipse cx="32" cy="42" rx="28" ry="8" fill="url(#waterGrad)" opacity="0.6"/>
  
  <!-- Mountains - left range -->
  <path d="M 3 32 L 12 18 L 22 22 L 28 15 L 35 25 L 35 40 L 3 40 Z" fill="url(#mountainGrad)" opacity="0.8"/>
  
  <!-- Mountains - right range -->
  <path d="M 35 25 L 42 18 L 48 22 L 55 16 L 61 28 L 61 40 L 35 40 Z" fill="url(#mountainGrad)" opacity="0.7"/>
  

  

  
  <!-- Ground/shore - just a subtle base -->
  <ellipse cx="32" cy="56" rx="18" ry="3.5" fill="#689f38" opacity="0.4"/>
  
  <!-- Tree trunk with texture - enlarged -->
  <rect x="29.5" y="38" width="5" height="20" fill="url(#trunkGrad)" rx="1"/>
  <line x1="30.5" y1="42" x2="30.5" y2="55" stroke="#3e2723" stroke-width="0.4"/>
  <line x1="33.5" y1="44" x2="33.5" y2="53" stroke="#3e2723" stroke-width="0.4"/>
  
  <!-- Main tree branches - more detailed branching -->
  <path d="M 30 38 L 20 30 L 16 32" fill="none" stroke="#5d4037" stroke-width="2" stroke-linecap="round"/>
  <path d="M 30.5 39 L 22 34 L 18 36" fill="none" stroke="#5d4037" stroke-width="1.5" stroke-linecap="round"/>
  <path d="M 34 38 L 44 30 L 48 32" fill="none" stroke="#5d4037" stroke-width="2" stroke-linecap="round"/>
  <path d="M 33.5 39 L 42 34 L 46 36" fill="none" stroke="#5d4037" stroke-width="1.5" stroke-linecap="round"/>
  <path d="M 32 37 L 32 22" fill="none" stroke="#5d4037" stroke-width="2" stroke-linecap="round"/>
  <path d="M 31 32 L 26 28 L 24 30" fill="none" stroke="#5d4037" stroke-width="1.2" stroke-linecap="round"/>
  <path d="M 33 32 L 38 28 L 40 30" fill="none" stroke="#5d4037" stroke-width="1.2" stroke-linecap="round"/>
  <path d="M 32 30 L 28 25 L 26 27" fill="none" stroke="#5d4037" stroke-width="1" stroke-linecap="round"/>
  <path d="M 32 30 L 36 25 L 38 27" fill="none" stroke="#5d4037" stroke-width="1" stroke-linecap="round"/>
  <!-- New lower right branch -->
  <path d="M 33 42 L 42 38 L 45 40" fill="none" stroke="#5d4037" stroke-width="1.8" stroke-linecap="round"/>
  
  <!-- Tree foliage - enlarged and layered for depth -->
  <!-- Back layer -->
  <circle cx="16" cy="32" r="6" fill="#7cb342" opacity="0.8"/>
  <circle cx="48" cy="32" r="6" fill="#7cb342" opacity="0.8"/>
  <ellipse cx="32" cy="20" rx="9" ry="7" fill="#7cb342" opacity="0.8"/>
  <circle cx="24" cy="30" r="5" fill="#7cb342" opacity="0.8"/>
  <circle cx="40" cy="30" r="5" fill="#7cb342" opacity="0.8"/>
  
  <!-- Middle layer -->
  <circle cx="18" cy="30" r="6.5" fill="#8bc34a"/>
  <circle cx="46" cy="30" r="6.5" fill="#8bc34a"/>
  <ellipse cx="32" cy="22" rx="10" ry="8" fill="#8bc34a"/>
  <circle cx="26" cy="28" r="5.5" fill="#8bc34a"/>
  <circle cx="38" cy="28" r="5.5" fill="#8bc34a"/>
  
  <!-- Front layer - highlights -->
  <circle cx="20" cy="28" r="5.5" fill="#9ccc65"/>
  <circle cx="44" cy="28" r="5.5" fill="#9ccc65"/>
  <ellipse cx="32" cy="19" rx="8" ry="6" fill="#9ccc65"/>
  <circle cx="28" cy="26" r="4.5" fill="#9ccc65"/>
  <circle cx="36" cy="26" r="4.5" fill="#9ccc65"/>
  
  <!-- Leaf details and texture -->
  <circle cx="22" cy="26" r="2" fill="#aed581"/>
  <circle cx="42" cy="26" r="2" fill="#aed581"/>
  <circle cx="32" cy="17" r="2.2" fill="#aed581"/>
  <circle cx="30" cy="24" r="1.8" fill="#aed581"/>
  <circle cx="34" cy="24" r="1.8" fill="#aed581"/>
  <circle cx="16" cy="30" r="1.5" fill="#aed581"/>
  <circle cx="48" cy="30" r="1.5" fill="#aed581"/>
  
  <!-- Small environmental details -->
  <!-- Distant trees -->
  <ellipse cx="50" cy="38" rx="2" ry="3" fill="#6b8ca3" opacity="0.6"/>
  <rect x="49.5" y="40" width="1" height="3" fill="#5d4037" opacity="0.6"/>
  

  
  <!-- Ground vegetation -->
  <circle cx="15" cy="50" r="1" fill="#689f38"/>
  <circle cx="48" cy="51" r="0.8" fill="#689f38"/>
  <circle cx="20" cy="52" r="0.6" fill="#7cb342"/>
</svg>